<svg width="81" height="46" viewBox="0 0 81 46" fill="none" xmlns="http://www.w3.org/2000/svg">
<path d="M61.3587 0.0753479H45.8014V45.1953H61.3587V0.0753479ZM44.7131 0.0753479L22.3656 45.1953L0.0469971 0.0753479H15.5971L22.3623 14.5026L29.1598 0.0753479H44.7131ZM62.2392 0.932896C62.3554 0.932896 62.4136 0.980568 62.4136 1.07578C62.4136 1.15527 62.3687 1.20066 62.279 1.21181L62.4251 1.43257H62.3396L62.2002 1.21772H62.116V1.43257H62.0365V0.933031L62.2392 0.932896ZM62.2075 1.15474C62.2558 1.15474 62.2892 1.14856 62.3071 1.13594C62.3251 1.12345 62.3341 1.10237 62.3341 1.07255C62.3341 1.02153 62.2981 0.995876 62.2264 0.995876H62.1163V1.15474H62.2075Z" fill="white"/>
<path d="M62.2078 1.6156C61.9642 1.6156 61.7661 1.42196 61.7661 1.18374C61.7661 0.945653 61.9642 0.752014 62.2078 0.752014C62.4515 0.752014 62.6496 0.945653 62.6496 1.18374C62.6496 1.42183 62.4515 1.6156 62.2078 1.6156ZM62.2078 0.819694C62.0024 0.819694 61.8351 0.982985 61.8351 1.18401C61.8351 1.3849 62.0022 1.54833 62.2078 1.54833C62.4135 1.54833 62.5806 1.3849 62.5806 1.18401C62.5806 0.982985 62.4135 0.819694 62.2078 0.819694Z" fill="white"/>
<path d="M61 45.2183L58 31.7727L80.6777 31.7727L80.6777 45.2183L61 45.2183Z" fill="white"/>
</svg>
